<?xml version="1.0" encoding="UTF-8" standalone="no"?>
<!DOCTYPE svg PUBLIC "-//W3C//DTD SVG 1.1//EN"
 "http://www.w3.org/Graphics/SVG/1.1/DTD/svg11.dtd">
<!-- Generated by graphviz version 2.38.0 (20140413.2041)
 -->
<!-- Title: G Pages: 1 -->
<svg width="1031pt" height="278pt"
 viewBox="0.00 0.00 1031.00 278.00" xmlns="http://www.w3.org/2000/svg" xmlns:xlink="http://www.w3.org/1999/xlink">
<g id="graph0" class="graph" transform="scale(1 1) rotate(0) translate(4 274)">
<title>G</title>
<polygon fill="white" stroke="none" points="-4,4 -4,-274 1027,-274 1027,4 -4,4"/>
<g id="clust1" class="cluster"><title>cluster1</title>
<polygon fill="none" stroke="black" points="8,-64 8,-262 828,-262 828,-64 8,-64"/>
</g>
<!-- rateSetting -->
<g id="node1" class="node"><title>rateSetting</title>
<polygon fill="none" stroke="black" points="506.5,-254 349.5,-254 349.5,-218 506.5,-218 506.5,-254"/>
<text text-anchor="middle" x="428" y="-232.3" font-family="Times New Roman,serif" font-size="14.00">获取开启自动评价的设置</text>
</g>
<!-- a -->
<g id="node2" class="node"><title>a</title>
<polygon fill="none" stroke="black" points="149,-181 81,-181 81,-145 149,-145 149,-181"/>
<text text-anchor="middle" x="115" y="-159.3" font-family="Times New Roman,serif" font-size="14.00">立即评价</text>
</g>
<!-- rateSetting&#45;&gt;a -->
<g id="edge1" class="edge"><title>rateSetting&#45;&gt;a</title>
<path fill="none" stroke="DodgerBlue" d="M349.285,-223.868C297.314,-215.521 227.767,-202.45 158.768,-181.927"/>
<polygon fill="DodgerBlue" stroke="DodgerBlue" points="159.623,-178.529 149.038,-178.982 157.595,-185.229 159.623,-178.529"/>
</g>
<!-- b -->
<g id="node3" class="node"><title>b</title>
<polygon fill="none" stroke="black" points="273,-181 167,-181 167,-145 273,-145 273,-181"/>
<text text-anchor="middle" x="220" y="-159.3" font-family="Times New Roman,serif" font-size="14.00">买家评价后评价</text>
</g>
<!-- rateSetting&#45;&gt;b -->
<g id="edge2" class="edge"><title>rateSetting&#45;&gt;b</title>
<path fill="none" stroke="DodgerBlue" d="M378.179,-217.994C348.681,-207.925 311.115,-195.102 279.995,-184.479"/>
<polygon fill="DodgerBlue" stroke="DodgerBlue" points="280.73,-181.032 270.136,-181.114 278.469,-187.656 280.73,-181.032"/>
</g>
<!-- c -->
<g id="node4" class="node"><title>c</title>
<polygon fill="none" stroke="black" points="708.5,-181 577.5,-181 577.5,-145 708.5,-145 708.5,-181"/>
<text text-anchor="middle" x="643" y="-159.3" font-family="Times New Roman,serif" font-size="14.00">确定收货第七天评价</text>
</g>
<!-- rateSetting&#45;&gt;c -->
<g id="edge3" class="edge"><title>rateSetting&#45;&gt;c</title>
<path fill="none" stroke="DodgerBlue" d="M479.498,-217.994C510.121,-207.881 549.155,-194.991 581.404,-184.341"/>
<polygon fill="DodgerBlue" stroke="DodgerBlue" points="582.779,-187.573 591.177,-181.114 580.584,-180.926 582.779,-187.573"/>
</g>
<!-- d -->
<g id="node5" class="node"><title>d</title>
<polygon fill="none" stroke="black" points="819.5,-181 726.5,-181 726.5,-145 819.5,-145 819.5,-181"/>
<text text-anchor="middle" x="773" y="-159.3" font-family="Times New Roman,serif" font-size="14.00">最后时间评价</text>
</g>
<!-- rateSetting&#45;&gt;d -->
<g id="edge4" class="edge"><title>rateSetting&#45;&gt;d</title>
<path fill="none" stroke="DodgerBlue" d="M506.779,-223.563C563.053,-214.708 640.633,-201.111 716.584,-182.209"/>
<polygon fill="DodgerBlue" stroke="DodgerBlue" points="717.478,-185.593 726.319,-179.754 715.766,-178.806 717.478,-185.593"/>
</g>
<!-- e -->
<g id="node6" class="node"><title>e</title>
<polygon fill="none" stroke="black" points="422.5,-182 291.5,-182 291.5,-144 422.5,-144 422.5,-182"/>
<text text-anchor="middle" x="357" y="-166.8" font-family="Times New Roman,serif" font-size="14.00">买家评价后评价，</text>
<text text-anchor="middle" x="357" y="-151.8" font-family="Times New Roman,serif" font-size="14.00">确定收货第七天评价</text>
</g>
<!-- rateSetting&#45;&gt;e -->
<g id="edge5" class="edge"><title>rateSetting&#45;&gt;e</title>
<path fill="none" stroke="DodgerBlue" d="M410.813,-217.813C402.264,-209.264 391.763,-198.763 382.314,-189.314"/>
<polygon fill="DodgerBlue" stroke="DodgerBlue" points="384.566,-186.616 375.02,-182.02 379.616,-191.566 384.566,-186.616"/>
</g>
<!-- f -->
<g id="node7" class="node"><title>f</title>
<polygon fill="none" stroke="black" points="559.5,-182 440.5,-182 440.5,-144 559.5,-144 559.5,-182"/>
<text text-anchor="middle" x="500" y="-166.8" font-family="Times New Roman,serif" font-size="14.00">买家评价后评价，</text>
<text text-anchor="middle" x="500" y="-151.8" font-family="Times New Roman,serif" font-size="14.00">最后时间评价</text>
</g>
<!-- rateSetting&#45;&gt;f -->
<g id="edge6" class="edge"><title>rateSetting&#45;&gt;f</title>
<path fill="none" stroke="DodgerBlue" d="M445.429,-217.813C454.099,-209.264 464.747,-198.763 474.329,-189.314"/>
<polygon fill="DodgerBlue" stroke="DodgerBlue" points="477.064,-191.533 481.727,-182.02 472.149,-186.549 477.064,-191.533"/>
</g>
<!-- qruc -->
<g id="node8" class="node"><title>qruc</title>
<polygon fill="none" stroke="black" points="275.5,-108 16.5,-108 16.5,-72 275.5,-72 275.5,-108"/>
<text text-anchor="middle" x="146" y="-86.3" font-family="Times New Roman,serif" font-size="14.00">查询RATE_UNSELLER的订单并执行评价</text>
</g>
<!-- a&#45;&gt;qruc -->
<g id="edge7" class="edge"><title>a&#45;&gt;qruc</title>
<path fill="none" stroke="DodgerBlue" d="M122.504,-144.813C126.084,-136.615 130.446,-126.623 134.436,-117.485"/>
<polygon fill="DodgerBlue" stroke="DodgerBlue" points="137.771,-118.594 138.565,-108.029 131.356,-115.793 137.771,-118.594"/>
</g>
<!-- qrbuc -->
<g id="node10" class="node"><title>qrbuc</title>
<polygon fill="none" stroke="black" points="606.5,-108 293.5,-108 293.5,-72 606.5,-72 606.5,-108"/>
<text text-anchor="middle" x="450" y="-86.3" font-family="Times New Roman,serif" font-size="14.00">查询RATE_BUYER_UNSELLER的订单并执行评价</text>
</g>
<!-- b&#45;&gt;qrbuc -->
<g id="edge8" class="edge"><title>b&#45;&gt;qrbuc</title>
<path fill="none" stroke="DodgerBlue" d="M273.055,-145.622C306.403,-135.328 349.656,-121.976 385.051,-111.05"/>
<polygon fill="DodgerBlue" stroke="DodgerBlue" points="386.288,-114.331 394.81,-108.037 384.223,-107.642 386.288,-114.331"/>
</g>
<!-- qru -->
<g id="node9" class="node"><title>qru</title>
<polygon fill="none" stroke="black" points="819.5,-108 624.5,-108 624.5,-72 819.5,-72 819.5,-108"/>
<text text-anchor="middle" x="722" y="-86.3" font-family="Times New Roman,serif" font-size="14.00">查询RATE_UNSELLER的订单</text>
</g>
<!-- c&#45;&gt;qru -->
<g id="edge9" class="edge"><title>c&#45;&gt;qru</title>
<path fill="none" stroke="DodgerBlue" d="M662.124,-144.813C672.119,-135.83 684.51,-124.693 695.423,-114.886"/>
<polygon fill="DodgerBlue" stroke="DodgerBlue" points="697.954,-117.316 703.052,-108.029 693.275,-112.11 697.954,-117.316"/>
</g>
<!-- d&#45;&gt;qru -->
<g id="edge10" class="edge"><title>d&#45;&gt;qru</title>
<path fill="none" stroke="DodgerBlue" d="M760.654,-144.813C754.515,-136.266 746.975,-125.769 740.19,-116.323"/>
<polygon fill="DodgerBlue" stroke="DodgerBlue" points="742.909,-114.109 734.232,-108.029 737.223,-118.193 742.909,-114.109"/>
</g>
<!-- e&#45;&gt;qru -->
<g id="edge11" class="edge"><title>e&#45;&gt;qru</title>
<path fill="none" stroke="DodgerBlue" d="M422.722,-145.802C425.516,-145.181 428.284,-144.577 431,-144 491.409,-131.163 559.283,-118.69 614.275,-109.073"/>
<polygon fill="DodgerBlue" stroke="DodgerBlue" points="615.138,-112.475 624.389,-107.311 613.937,-105.579 615.138,-112.475"/>
</g>
<!-- e&#45;&gt;qrbuc -->
<g id="edge12" class="edge"><title>e&#45;&gt;qrbuc</title>
<path fill="none" stroke="DodgerBlue" d="M380.95,-143.716C392.782,-134.683 407.183,-123.688 419.767,-114.081"/>
<polygon fill="DodgerBlue" stroke="DodgerBlue" points="421.903,-116.854 427.728,-108.003 417.656,-111.29 421.903,-116.854"/>
</g>
<!-- f&#45;&gt;qru -->
<g id="edge13" class="edge"><title>f&#45;&gt;qru</title>
<path fill="none" stroke="DodgerBlue" d="M556.307,-143.992C587.622,-133.977 626.68,-121.485 659.009,-111.146"/>
<polygon fill="DodgerBlue" stroke="DodgerBlue" points="660.351,-114.391 668.809,-108.011 658.219,-107.724 660.351,-114.391"/>
</g>
<!-- f&#45;&gt;qrbuc -->
<g id="edge14" class="edge"><title>f&#45;&gt;qrbuc</title>
<path fill="none" stroke="DodgerBlue" d="M487.124,-143.716C481.247,-135.371 474.192,-125.352 467.817,-116.3"/>
<polygon fill="DodgerBlue" stroke="DodgerBlue" points="470.594,-114.164 461.974,-108.003 464.87,-118.195 470.594,-114.164"/>
</g>
<!-- saveRateRecord -->
<g id="node13" class="node"><title>saveRateRecord</title>
<polygon fill="#c1b2ff" stroke="#c1b2ff" points="370.5,-36 277.5,-36 277.5,-0 370.5,-0 370.5,-36"/>
<text text-anchor="middle" x="324" y="-14.3" font-family="Times New Roman,serif" font-size="14.00">保存评价记录</text>
</g>
<!-- qruc&#45;&gt;saveRateRecord -->
<g id="edge17" class="edge"><title>qruc&#45;&gt;saveRateRecord</title>
<path fill="none" stroke="red" d="M189.544,-71.8761C214.202,-62.1791 245.223,-49.9795 271.254,-39.7427"/>
<polygon fill="red" stroke="red" points="272.572,-42.9853 280.598,-36.0683 270.011,-36.4709 272.572,-42.9853"/>
</g>
<!-- saveRateStatus -->
<g id="node11" class="node"><title>saveRateStatus</title>
<polygon fill="none" stroke="black" points="652.5,-36 441.5,-36 441.5,-0 652.5,-0 652.5,-36"/>
<text text-anchor="middle" x="547" y="-14.3" font-family="Times New Roman,serif" font-size="14.00">保存订单信息到 wb_rate_status 表</text>
</g>
<!-- qru&#45;&gt;saveRateStatus -->
<g id="edge16" class="edge"><title>qru&#45;&gt;saveRateStatus</title>
<path fill="none" stroke="Chartreuse" d="M679.19,-71.8761C655.054,-62.2216 624.716,-50.0865 599.194,-39.8775"/>
<polygon fill="Chartreuse" stroke="Chartreuse" points="600.255,-36.5326 589.671,-36.0683 597.656,-43.032 600.255,-36.5326"/>
</g>
<!-- saveApiScanTime -->
<g id="node12" class="node"><title>saveApiScanTime</title>
<polygon fill="none" stroke="black" points="1023,-36 671,-36 671,-0 1023,-0 1023,-36"/>
<text text-anchor="middle" x="847" y="-14.3" font-family="Times New Roman,serif" font-size="14.00">保存 end_created 参数到 wb_rate_api_scan.trade_end_time</text>
</g>
<!-- qru&#45;&gt;saveApiScanTime -->
<g id="edge15" class="edge"><title>qru&#45;&gt;saveApiScanTime</title>
<path fill="none" stroke="Chartreuse" d="M752.578,-71.8761C769.074,-62.6388 789.624,-51.1308 807.336,-41.2116"/>
<polygon fill="Chartreuse" stroke="Chartreuse" points="809.289,-44.1296 816.304,-36.1898 805.869,-38.0221 809.289,-44.1296"/>
</g>
<!-- qrbuc&#45;&gt;saveRateRecord -->
<g id="edge18" class="edge"><title>qrbuc&#45;&gt;saveRateRecord</title>
<path fill="none" stroke="red" d="M419.177,-71.8761C402.55,-62.6388 381.835,-51.1308 363.981,-41.2116"/>
<polygon fill="red" stroke="red" points="365.383,-37.9867 354.942,-36.1898 361.983,-44.1058 365.383,-37.9867"/>
</g>
</g>
</svg>
