<?xml version="1.0" encoding="UTF-8" standalone="no"?>
<!DOCTYPE svg PUBLIC "-//W3C//DTD SVG 1.1//EN"
 "http://www.w3.org/Graphics/SVG/1.1/DTD/svg11.dtd">
<!-- Generated by graphviz version 2.38.0 (20140413.2041)
 -->
<!-- Title: G Pages: 1 -->
<svg width="779pt" height="348pt"
 viewBox="0.00 0.00 778.50 348.00" xmlns="http://www.w3.org/2000/svg" xmlns:xlink="http://www.w3.org/1999/xlink">
<g id="graph0" class="graph" transform="scale(1 1) rotate(0) translate(4 344)">
<title>G</title>
<polygon fill="white" stroke="none" points="-4,4 -4,-344 774.5,-344 774.5,4 -4,4"/>
<g id="clust1" class="cluster"><title>cluster0</title>
<polygon fill="none" stroke="black" points="8,-64 8,-332 549,-332 549,-64 8,-64"/>
</g>
<!-- ONS -->
<g id="node1" class="node"><title>ONS</title>
<polygon fill="none" stroke="black" points="364,-324 310,-324 310,-288 364,-288 364,-324"/>
<text text-anchor="middle" x="337" y="-302.3" font-family="Times New Roman,serif" font-size="14.00">ONS</text>
</g>
<!-- taobao_trade_TradeSuccess -->
<g id="node2" class="node"><title>taobao_trade_TradeSuccess</title>
<polygon fill="none" stroke="black" points="520.5,-252 343.5,-252 343.5,-216 520.5,-216 520.5,-252"/>
<text text-anchor="middle" x="432" y="-230.3" font-family="Times New Roman,serif" font-size="14.00">taobao_trade_TradeSuccess</text>
</g>
<!-- ONS&#45;&gt;taobao_trade_TradeSuccess -->
<g id="edge1" class="edge"><title>ONS&#45;&gt;taobao_trade_TradeSuccess</title>
<path fill="none" stroke="DodgerBlue" d="M360.483,-287.697C372.563,-278.796 387.454,-267.823 400.516,-258.199"/>
<polygon fill="DodgerBlue" stroke="DodgerBlue" points="402.813,-260.854 408.787,-252.104 398.66,-255.219 402.813,-260.854"/>
</g>
<!-- taobao_trade_TradeRated -->
<g id="node3" class="node"><title>taobao_trade_TradeRated</title>
<polygon fill="none" stroke="black" points="283,-252 119,-252 119,-216 283,-216 283,-252"/>
<text text-anchor="middle" x="201" y="-230.3" font-family="Times New Roman,serif" font-size="14.00">taobao_trade_TradeRated</text>
</g>
<!-- ONS&#45;&gt;taobao_trade_TradeRated -->
<g id="edge2" class="edge"><title>ONS&#45;&gt;taobao_trade_TradeRated</title>
<path fill="none" stroke="DodgerBlue" d="M309.805,-291.003C290.814,-281.228 265.084,-267.984 243.413,-256.83"/>
<polygon fill="DodgerBlue" stroke="DodgerBlue" points="244.899,-253.658 234.405,-252.194 241.695,-259.882 244.899,-253.658"/>
</g>
<!-- eqa -->
<g id="node5" class="node"><title>eqa</title>
<polygon fill="none" stroke="black" points="432,-180 322.74,-162 432,-144 541.26,-162 432,-180"/>
<text text-anchor="middle" x="432" y="-158.3" font-family="Times New Roman,serif" font-size="14.00">设置的是立即评价</text>
</g>
<!-- taobao_trade_TradeSuccess&#45;&gt;eqa -->
<g id="edge3" class="edge"><title>taobao_trade_TradeSuccess&#45;&gt;eqa</title>
<path fill="none" stroke="DodgerBlue" d="M432,-215.697C432,-207.983 432,-198.712 432,-190.112"/>
<polygon fill="DodgerBlue" stroke="DodgerBlue" points="435.5,-190.104 432,-180.104 428.5,-190.104 435.5,-190.104"/>
</g>
<!-- saveRateStatus -->
<g id="node7" class="node"><title>saveRateStatus</title>
<polygon fill="none" stroke="black" points="770.5,-180 559.5,-180 559.5,-144 770.5,-144 770.5,-180"/>
<text text-anchor="middle" x="665" y="-158.3" font-family="Times New Roman,serif" font-size="14.00">保存订单信息到 wb_rate_status 表</text>
</g>
<!-- taobao_trade_TradeSuccess&#45;&gt;saveRateStatus -->
<g id="edge7" class="edge"><title>taobao_trade_TradeSuccess&#45;&gt;saveRateStatus</title>
<path fill="none" stroke="Chartreuse" d="M488.7,-215.966C521.68,-206.057 563.432,-193.514 598.026,-183.121"/>
<polygon fill="Chartreuse" stroke="Chartreuse" points="599.475,-186.34 608.045,-180.111 597.461,-179.636 599.475,-186.34"/>
</g>
<!-- eqb -->
<g id="node6" class="node"><title>eqb</title>
<polygon fill="none" stroke="black" points="160,-180 15.8844,-162 160,-144 304.116,-162 160,-180"/>
<text text-anchor="middle" x="160" y="-158.3" font-family="Times New Roman,serif" font-size="14.00">设置的是买家评价后评价</text>
</g>
<!-- taobao_trade_TradeRated&#45;&gt;eqb -->
<g id="edge5" class="edge"><title>taobao_trade_TradeRated&#45;&gt;eqb</title>
<path fill="none" stroke="DodgerBlue" d="M190.865,-215.697C185.956,-207.316 179.972,-197.098 174.584,-187.899"/>
<polygon fill="DodgerBlue" stroke="DodgerBlue" points="177.53,-186.004 169.456,-179.145 171.49,-189.542 177.53,-186.004"/>
</g>
<!-- rate -->
<g id="node4" class="node"><title>rate</title>
<polygon fill="none" stroke="black" points="330,-108 262,-108 262,-72 330,-72 330,-108"/>
<text text-anchor="middle" x="296" y="-86.3" font-family="Times New Roman,serif" font-size="14.00">执行评价</text>
</g>
<!-- saveRateRecord -->
<g id="node8" class="node"><title>saveRateRecord</title>
<polygon fill="#c1b2ff" stroke="#c1b2ff" points="342.5,-36 249.5,-36 249.5,-0 342.5,-0 342.5,-36"/>
<text text-anchor="middle" x="296" y="-14.3" font-family="Times New Roman,serif" font-size="14.00">保存评价记录</text>
</g>
<!-- rate&#45;&gt;saveRateRecord -->
<g id="edge8" class="edge"><title>rate&#45;&gt;saveRateRecord</title>
<path fill="none" stroke="red" d="M296,-71.6966C296,-63.9827 296,-54.7125 296,-46.1124"/>
<polygon fill="red" stroke="red" points="299.5,-46.1043 296,-36.1043 292.5,-46.1044 299.5,-46.1043"/>
</g>
<!-- eqa&#45;&gt;rate -->
<g id="edge4" class="edge"><title>eqa&#45;&gt;rate</title>
<path fill="none" stroke="DodgerBlue" d="M406.738,-147.998C387.496,-138.094 360.577,-124.238 338.098,-112.668"/>
<polygon fill="DodgerBlue" stroke="DodgerBlue" points="339.584,-109.496 329.091,-108.032 336.38,-115.72 339.584,-109.496"/>
</g>
<!-- eqb&#45;&gt;rate -->
<g id="edge6" class="edge"><title>eqb&#45;&gt;rate</title>
<path fill="none" stroke="DodgerBlue" d="M186.869,-147.17C205.97,-137.339 232.007,-123.937 253.858,-112.691"/>
<polygon fill="DodgerBlue" stroke="DodgerBlue" points="255.645,-115.708 262.934,-108.019 252.441,-109.484 255.645,-115.708"/>
</g>
</g>
</svg>
