<?xml version="1.0" encoding="UTF-8" standalone="no"?>
<!DOCTYPE svg PUBLIC "-//W3C//DTD SVG 1.1//EN"
 "http://www.w3.org/Graphics/SVG/1.1/DTD/svg11.dtd">
<!-- Generated by graphviz version 2.38.0 (20140413.2041)
 -->
<!-- Title: G Pages: 1 -->
<svg width="1933pt" height="350pt"
 viewBox="0.00 0.00 1933.00 350.00" xmlns="http://www.w3.org/2000/svg" xmlns:xlink="http://www.w3.org/1999/xlink">
<g id="graph0" class="graph" transform="scale(1 1) rotate(0) translate(4 346)">
<title>G</title>
<polygon fill="white" stroke="none" points="-4,4 -4,-346 1929,-346 1929,4 -4,4"/>
<g id="clust1" class="cluster"><title>cluster0</title>
<polygon fill="none" stroke="black" points="930,-64 930,-334 1471,-334 1471,-64 930,-64"/>
</g>
<g id="clust7" class="cluster"><title>cluster2</title>
<polygon fill="none" stroke="black" points="1479,-64 1479,-262 1917,-262 1917,-64 1479,-64"/>
</g>
<g id="clust3" class="cluster"><title>cluster1</title>
<polygon fill="none" stroke="black" points="70,-64 70,-262 890,-262 890,-64 70,-64"/>
</g>
<!-- ONS -->
<g id="node1" class="node"><title>ONS</title>
<polygon fill="none" stroke="black" points="1168,-326 1114,-326 1114,-290 1168,-290 1168,-326"/>
<text text-anchor="middle" x="1141" y="-304.3" font-family="Times New Roman,serif" font-size="14.00">ONS</text>
</g>
<!-- taobao_trade_TradeSuccess -->
<g id="node2" class="node"><title>taobao_trade_TradeSuccess</title>
<polygon fill="none" stroke="black" points="1135.5,-254 958.5,-254 958.5,-218 1135.5,-218 1135.5,-254"/>
<text text-anchor="middle" x="1047" y="-232.3" font-family="Times New Roman,serif" font-size="14.00">taobao_trade_TradeSuccess</text>
</g>
<!-- ONS&#45;&gt;taobao_trade_TradeSuccess -->
<g id="edge1" class="edge"><title>ONS&#45;&gt;taobao_trade_TradeSuccess</title>
<path fill="none" stroke="DodgerBlue" d="M1117.76,-289.697C1105.81,-280.796 1091.08,-269.823 1078.15,-260.199"/>
<polygon fill="DodgerBlue" stroke="DodgerBlue" points="1080.08,-257.27 1069.97,-254.104 1075.9,-262.884 1080.08,-257.27"/>
</g>
<!-- taobao_trade_TradeRated -->
<g id="node3" class="node"><title>taobao_trade_TradeRated</title>
<polygon fill="none" stroke="black" points="1359,-254 1195,-254 1195,-218 1359,-218 1359,-254"/>
<text text-anchor="middle" x="1277" y="-232.3" font-family="Times New Roman,serif" font-size="14.00">taobao_trade_TradeRated</text>
</g>
<!-- ONS&#45;&gt;taobao_trade_TradeRated -->
<g id="edge2" class="edge"><title>ONS&#45;&gt;taobao_trade_TradeRated</title>
<path fill="none" stroke="DodgerBlue" d="M1168.19,-293.003C1187.19,-283.228 1212.92,-269.984 1234.59,-258.83"/>
<polygon fill="DodgerBlue" stroke="DodgerBlue" points="1236.31,-261.882 1243.59,-254.194 1233.1,-255.658 1236.31,-261.882"/>
</g>
<!-- eqa -->
<g id="node5" class="node"><title>eqa</title>
<polygon fill="none" stroke="black" points="1047,-181 937.74,-163 1047,-145 1156.26,-163 1047,-181"/>
<text text-anchor="middle" x="1047" y="-159.3" font-family="Times New Roman,serif" font-size="14.00">设置的是立即评价</text>
</g>
<!-- taobao_trade_TradeSuccess&#45;&gt;eqa -->
<g id="edge3" class="edge"><title>taobao_trade_TradeSuccess&#45;&gt;eqa</title>
<path fill="none" stroke="DodgerBlue" d="M1047,-217.813C1047,-209.789 1047,-200.047 1047,-191.069"/>
<polygon fill="DodgerBlue" stroke="DodgerBlue" points="1050.5,-191.029 1047,-181.029 1043.5,-191.029 1050.5,-191.029"/>
</g>
<!-- saveRateStatus -->
<g id="node22" class="node"><title>saveRateStatus</title>
<polygon fill="none" stroke="black" points="781.5,-36 570.5,-36 570.5,-0 781.5,-0 781.5,-36"/>
<text text-anchor="middle" x="676" y="-14.3" font-family="Times New Roman,serif" font-size="14.00">保存订单信息到 wb_rate_status 表</text>
</g>
<!-- taobao_trade_TradeSuccess&#45;&gt;saveRateStatus -->
<g id="edge27" class="edge"><title>taobao_trade_TradeSuccess&#45;&gt;saveRateStatus</title>
<path fill="none" stroke="Chartreuse" d="M983.273,-217.914C963.543,-209.86 943.265,-198.314 929,-182 892.992,-140.82 934.285,-101.007 894,-64 878.224,-49.5079 835.227,-39.1283 791.544,-32.0171"/>
<polygon fill="Chartreuse" stroke="Chartreuse" points="792.055,-28.5545 781.633,-30.4594 790.968,-35.4696 792.055,-28.5545"/>
</g>
<!-- eqb -->
<g id="node6" class="node"><title>eqb</title>
<polygon fill="none" stroke="black" points="1319,-181 1174.88,-163 1319,-145 1463.12,-163 1319,-181"/>
<text text-anchor="middle" x="1319" y="-159.3" font-family="Times New Roman,serif" font-size="14.00">设置的是买家评价后评价</text>
</g>
<!-- taobao_trade_TradeRated&#45;&gt;eqb -->
<g id="edge5" class="edge"><title>taobao_trade_TradeRated&#45;&gt;eqb</title>
<path fill="none" stroke="DodgerBlue" d="M1287.17,-217.813C1292.32,-209.105 1298.67,-198.372 1304.34,-188.788"/>
<polygon fill="DodgerBlue" stroke="DodgerBlue" points="1307.42,-190.444 1309.5,-180.056 1301.4,-186.88 1307.42,-190.444"/>
</g>
<!-- rate -->
<g id="node4" class="node"><title>rate</title>
<polygon fill="none" stroke="black" points="1081,-108 1013,-108 1013,-72 1081,-72 1081,-108"/>
<text text-anchor="middle" x="1047" y="-86.3" font-family="Times New Roman,serif" font-size="14.00">执行评价</text>
</g>
<!-- saveRateRecord -->
<g id="node24" class="node"><title>saveRateRecord</title>
<polygon fill="#c1b2ff" stroke="#c1b2ff" points="945.5,-36 852.5,-36 852.5,-0 945.5,-0 945.5,-36"/>
<text text-anchor="middle" x="899" y="-14.3" font-family="Times New Roman,serif" font-size="14.00">保存评价记录</text>
</g>
<!-- rate&#45;&gt;saveRateRecord -->
<g id="edge28" class="edge"><title>rate&#45;&gt;saveRateRecord</title>
<path fill="none" stroke="red" d="M1012.67,-72.7646C992.276,-63.1169 966.168,-50.7685 944.118,-40.3395"/>
<polygon fill="red" stroke="red" points="945.481,-37.1126 934.945,-36.0009 942.488,-43.4405 945.481,-37.1126"/>
</g>
<!-- eqa&#45;&gt;rate -->
<g id="edge4" class="edge"><title>eqa&#45;&gt;rate</title>
<path fill="none" stroke="DodgerBlue" d="M1047,-144.813C1047,-136.789 1047,-127.047 1047,-118.069"/>
<polygon fill="DodgerBlue" stroke="DodgerBlue" points="1050.5,-118.029 1047,-108.029 1043.5,-118.029 1050.5,-118.029"/>
</g>
<!-- eqb&#45;&gt;rate -->
<g id="edge6" class="edge"><title>eqb&#45;&gt;rate</title>
<path fill="none" stroke="DodgerBlue" d="M1274.69,-150.435C1224.13,-137.237 1141.93,-115.779 1091.35,-102.577"/>
<polygon fill="DodgerBlue" stroke="DodgerBlue" points="1091.93,-99.1103 1081.37,-99.9711 1090.16,-105.883 1091.93,-99.1103"/>
</g>
<!-- rateSetting -->
<g id="node7" class="node"><title>rateSetting</title>
<polygon fill="none" stroke="black" points="553.5,-254 396.5,-254 396.5,-218 553.5,-218 553.5,-254"/>
<text text-anchor="middle" x="475" y="-232.3" font-family="Times New Roman,serif" font-size="14.00">获取开启自动评价的设置</text>
</g>
<!-- a -->
<g id="node8" class="node"><title>a</title>
<polygon fill="none" stroke="black" points="817,-181 749,-181 749,-145 817,-145 817,-181"/>
<text text-anchor="middle" x="783" y="-159.3" font-family="Times New Roman,serif" font-size="14.00">立即评价</text>
</g>
<!-- rateSetting&#45;&gt;a -->
<g id="edge7" class="edge"><title>rateSetting&#45;&gt;a</title>
<path fill="none" stroke="DodgerBlue" d="M553.704,-223.481C604.466,-215.076 671.865,-202.094 739.05,-181.989"/>
<polygon fill="DodgerBlue" stroke="DodgerBlue" points="740.412,-185.233 748.959,-178.971 738.373,-178.536 740.412,-185.233"/>
</g>
<!-- b -->
<g id="node9" class="node"><title>b</title>
<polygon fill="none" stroke="black" points="731,-181 625,-181 625,-145 731,-145 731,-181"/>
<text text-anchor="middle" x="678" y="-159.3" font-family="Times New Roman,serif" font-size="14.00">买家评价后评价</text>
</g>
<!-- rateSetting&#45;&gt;b -->
<g id="edge8" class="edge"><title>rateSetting&#45;&gt;b</title>
<path fill="none" stroke="DodgerBlue" d="M523.624,-217.994C552.412,-207.925 589.075,-195.102 619.448,-184.479"/>
<polygon fill="DodgerBlue" stroke="DodgerBlue" points="620.786,-187.719 629.07,-181.114 618.475,-181.111 620.786,-187.719"/>
</g>
<!-- c -->
<g id="node10" class="node"><title>c</title>
<polygon fill="none" stroke="black" points="209.5,-181 78.5,-181 78.5,-145 209.5,-145 209.5,-181"/>
<text text-anchor="middle" x="144" y="-159.3" font-family="Times New Roman,serif" font-size="14.00">确定收货第七天评价</text>
</g>
<!-- rateSetting&#45;&gt;c -->
<g id="edge9" class="edge"><title>rateSetting&#45;&gt;c</title>
<path fill="none" stroke="DodgerBlue" d="M396.395,-219.536C347.925,-209.826 284.25,-196.757 219.687,-182.347"/>
<polygon fill="DodgerBlue" stroke="DodgerBlue" points="220.263,-178.89 209.739,-180.118 218.732,-185.72 220.263,-178.89"/>
</g>
<!-- d -->
<g id="node11" class="node"><title>d</title>
<polygon fill="none" stroke="black" points="320.5,-181 227.5,-181 227.5,-145 320.5,-145 320.5,-181"/>
<text text-anchor="middle" x="274" y="-159.3" font-family="Times New Roman,serif" font-size="14.00">最后时间评价</text>
</g>
<!-- rateSetting&#45;&gt;d -->
<g id="edge10" class="edge"><title>rateSetting&#45;&gt;d</title>
<path fill="none" stroke="DodgerBlue" d="M426.855,-217.994C397.826,-207.74 360.711,-194.629 330.324,-183.895"/>
<polygon fill="DodgerBlue" stroke="DodgerBlue" points="331.307,-180.531 320.713,-180.5 328.976,-187.131 331.307,-180.531"/>
</g>
<!-- e -->
<g id="node12" class="node"><title>e</title>
<polygon fill="none" stroke="black" points="469.5,-182 338.5,-182 338.5,-144 469.5,-144 469.5,-182"/>
<text text-anchor="middle" x="404" y="-166.8" font-family="Times New Roman,serif" font-size="14.00">买家评价后评价，</text>
<text text-anchor="middle" x="404" y="-151.8" font-family="Times New Roman,serif" font-size="14.00">确定收货第七天评价</text>
</g>
<!-- rateSetting&#45;&gt;e -->
<g id="edge11" class="edge"><title>rateSetting&#45;&gt;e</title>
<path fill="none" stroke="DodgerBlue" d="M457.813,-217.813C449.264,-209.264 438.763,-198.763 429.314,-189.314"/>
<polygon fill="DodgerBlue" stroke="DodgerBlue" points="431.566,-186.616 422.02,-182.02 426.616,-191.566 431.566,-186.616"/>
</g>
<!-- f -->
<g id="node13" class="node"><title>f</title>
<polygon fill="none" stroke="black" points="606.5,-182 487.5,-182 487.5,-144 606.5,-144 606.5,-182"/>
<text text-anchor="middle" x="547" y="-166.8" font-family="Times New Roman,serif" font-size="14.00">买家评价后评价，</text>
<text text-anchor="middle" x="547" y="-151.8" font-family="Times New Roman,serif" font-size="14.00">最后时间评价</text>
</g>
<!-- rateSetting&#45;&gt;f -->
<g id="edge12" class="edge"><title>rateSetting&#45;&gt;f</title>
<path fill="none" stroke="DodgerBlue" d="M492.429,-217.813C501.099,-209.264 511.747,-198.763 521.329,-189.314"/>
<polygon fill="DodgerBlue" stroke="DodgerBlue" points="524.064,-191.533 528.727,-182.02 519.149,-186.549 524.064,-191.533"/>
</g>
<!-- qruc -->
<g id="node14" class="node"><title>qruc</title>
<polygon fill="none" stroke="black" points="881.5,-108 622.5,-108 622.5,-72 881.5,-72 881.5,-108"/>
<text text-anchor="middle" x="752" y="-86.3" font-family="Times New Roman,serif" font-size="14.00">查询RATE_UNSELLER的订单并执行评价</text>
</g>
<!-- a&#45;&gt;qruc -->
<g id="edge13" class="edge"><title>a&#45;&gt;qruc</title>
<path fill="none" stroke="DodgerBlue" d="M775.496,-144.813C771.916,-136.615 767.554,-126.623 763.564,-117.485"/>
<polygon fill="DodgerBlue" stroke="DodgerBlue" points="766.644,-115.793 759.435,-108.029 760.229,-118.594 766.644,-115.793"/>
</g>
<!-- qrbuc -->
<g id="node16" class="node"><title>qrbuc</title>
<polygon fill="none" stroke="black" points="604.5,-108 291.5,-108 291.5,-72 604.5,-72 604.5,-108"/>
<text text-anchor="middle" x="448" y="-86.3" font-family="Times New Roman,serif" font-size="14.00">查询RATE_BUYER_UNSELLER的订单并执行评价</text>
</g>
<!-- b&#45;&gt;qrbuc -->
<g id="edge14" class="edge"><title>b&#45;&gt;qrbuc</title>
<path fill="none" stroke="DodgerBlue" d="M624.945,-145.622C591.597,-135.328 548.344,-121.976 512.949,-111.05"/>
<polygon fill="DodgerBlue" stroke="DodgerBlue" points="513.777,-107.642 503.19,-108.037 511.712,-114.331 513.777,-107.642"/>
</g>
<!-- qru -->
<g id="node15" class="node"><title>qru</title>
<polygon fill="none" stroke="black" points="273.5,-108 78.5,-108 78.5,-72 273.5,-72 273.5,-108"/>
<text text-anchor="middle" x="176" y="-86.3" font-family="Times New Roman,serif" font-size="14.00">查询RATE_UNSELLER的订单</text>
</g>
<!-- c&#45;&gt;qru -->
<g id="edge15" class="edge"><title>c&#45;&gt;qru</title>
<path fill="none" stroke="DodgerBlue" d="M151.746,-144.813C155.48,-136.528 160.04,-126.41 164.195,-117.193"/>
<polygon fill="DodgerBlue" stroke="DodgerBlue" points="167.407,-118.584 168.325,-108.029 161.025,-115.707 167.407,-118.584"/>
</g>
<!-- d&#45;&gt;qru -->
<g id="edge16" class="edge"><title>d&#45;&gt;qru</title>
<path fill="none" stroke="DodgerBlue" d="M250.277,-144.813C237.517,-135.569 221.608,-124.043 207.791,-114.032"/>
<polygon fill="DodgerBlue" stroke="DodgerBlue" points="209.656,-111.062 199.505,-108.029 205.549,-116.73 209.656,-111.062"/>
</g>
<!-- e&#45;&gt;qru -->
<g id="edge17" class="edge"><title>e&#45;&gt;qru</title>
<path fill="none" stroke="DodgerBlue" d="M346.171,-143.992C313.871,-133.933 273.55,-121.377 240.265,-111.012"/>
<polygon fill="DodgerBlue" stroke="DodgerBlue" points="241.217,-107.643 230.628,-108.011 239.135,-114.326 241.217,-107.643"/>
</g>
<!-- e&#45;&gt;qrbuc -->
<g id="edge18" class="edge"><title>e&#45;&gt;qrbuc</title>
<path fill="none" stroke="DodgerBlue" d="M415.331,-143.716C420.449,-135.457 426.584,-125.558 432.148,-116.58"/>
<polygon fill="DodgerBlue" stroke="DodgerBlue" points="435.17,-118.347 437.463,-108.003 429.22,-114.66 435.17,-118.347"/>
</g>
<!-- f&#45;&gt;qru -->
<g id="edge19" class="edge"><title>f&#45;&gt;qru</title>
<path fill="none" stroke="DodgerBlue" d="M487.233,-146.09C484.116,-145.36 481.024,-144.659 478,-144 441.612,-136.075 354.785,-120.98 283.525,-108.921"/>
<polygon fill="DodgerBlue" stroke="DodgerBlue" points="284.024,-105.455 273.58,-107.24 282.857,-112.358 284.024,-105.455"/>
</g>
<!-- f&#45;&gt;qrbuc -->
<g id="edge20" class="edge"><title>f&#45;&gt;qrbuc</title>
<path fill="none" stroke="DodgerBlue" d="M521.762,-143.9C509.048,-134.782 493.496,-123.629 479.956,-113.918"/>
<polygon fill="DodgerBlue" stroke="DodgerBlue" points="481.995,-111.073 471.829,-108.09 477.916,-116.762 481.995,-111.073"/>
</g>
<!-- qruc&#45;&gt;saveRateRecord -->
<g id="edge29" class="edge"><title>qruc&#45;&gt;saveRateRecord</title>
<path fill="none" stroke="red" d="M787.96,-71.8761C807.877,-62.3917 832.822,-50.5134 854.02,-40.419"/>
<polygon fill="red" stroke="red" points="855.633,-43.5277 863.157,-36.0683 852.623,-37.2077 855.633,-43.5277"/>
</g>
<!-- qru&#45;&gt;saveRateStatus -->
<g id="edge26" class="edge"><title>qru&#45;&gt;saveRateStatus</title>
<path fill="none" stroke="Chartreuse" d="M242.76,-71.9931C255.72,-69.0496 269.241,-66.2253 282,-64 374.82,-47.8116 480.999,-36.0711 559.727,-28.6494"/>
<polygon fill="Chartreuse" stroke="Chartreuse" points="560.53,-32.0897 570.162,-27.6758 559.88,-25.12 560.53,-32.0897"/>
</g>
<!-- saveApiScanTime -->
<g id="node23" class="node"><title>saveApiScanTime</title>
<polygon fill="none" stroke="black" points="352,-36 0,-36 0,-0 352,-0 352,-36"/>
<text text-anchor="middle" x="176" y="-14.3" font-family="Times New Roman,serif" font-size="14.00">保存 end_created 参数到 wb_rate_api_scan.trade_end_time</text>
</g>
<!-- qru&#45;&gt;saveApiScanTime -->
<g id="edge25" class="edge"><title>qru&#45;&gt;saveApiScanTime</title>
<path fill="none" stroke="Chartreuse" d="M176,-71.6966C176,-63.9827 176,-54.7125 176,-46.1124"/>
<polygon fill="Chartreuse" stroke="Chartreuse" points="179.5,-46.1043 176,-36.1043 172.5,-46.1044 179.5,-46.1043"/>
</g>
<!-- qrbuc&#45;&gt;saveRateRecord -->
<g id="edge30" class="edge"><title>qrbuc&#45;&gt;saveRateRecord</title>
<path fill="none" stroke="red" d="M558.13,-71.9608C625.162,-61.5827 712.521,-48.0454 790,-36 806.926,-33.3686 825.33,-30.5008 842.112,-27.8831"/>
<polygon fill="red" stroke="red" points="842.984,-31.2896 852.324,-26.2898 841.904,-24.3732 842.984,-31.2896"/>
</g>
<!-- h -->
<g id="node17" class="node"><title>h</title>
<polygon fill="none" stroke="black" points="1708.5,-254 1487.5,-254 1487.5,-218 1708.5,-218 1708.5,-254"/>
<text text-anchor="middle" x="1598" y="-232.3" font-family="Times New Roman,serif" font-size="14.00">查询开启确定收货第七天评价的用户</text>
</g>
<!-- j -->
<g id="node19" class="node"><title>j</title>
<polygon fill="none" stroke="black" points="1674,-182 1522,-182 1522,-144 1674,-144 1674,-182"/>
<text text-anchor="middle" x="1598" y="-166.8" font-family="Times New Roman,serif" font-size="14.00">查询wb_rate_status表中</text>
<text text-anchor="middle" x="1598" y="-151.8" font-family="Times New Roman,serif" font-size="14.00">6天前可以评价的订单</text>
</g>
<!-- h&#45;&gt;j -->
<g id="edge21" class="edge"><title>h&#45;&gt;j</title>
<path fill="none" stroke="DodgerBlue" d="M1598,-217.813C1598,-210.11 1598,-200.823 1598,-192.149"/>
<polygon fill="DodgerBlue" stroke="DodgerBlue" points="1601.5,-192.02 1598,-182.02 1594.5,-192.02 1601.5,-192.02"/>
</g>
<!-- i -->
<g id="node18" class="node"><title>i</title>
<polygon fill="none" stroke="black" points="1909,-254 1727,-254 1727,-218 1909,-218 1909,-254"/>
<text text-anchor="middle" x="1818" y="-232.3" font-family="Times New Roman,serif" font-size="14.00">查询开启最后时间评价的用户</text>
</g>
<!-- k -->
<g id="node20" class="node"><title>k</title>
<polygon fill="none" stroke="black" points="1869,-182 1717,-182 1717,-144 1869,-144 1869,-182"/>
<text text-anchor="middle" x="1793" y="-166.8" font-family="Times New Roman,serif" font-size="14.00">查询wb_rate_status表中</text>
<text text-anchor="middle" x="1793" y="-151.8" font-family="Times New Roman,serif" font-size="14.00">14天前可以评价的订单</text>
</g>
<!-- i&#45;&gt;k -->
<g id="edge23" class="edge"><title>i&#45;&gt;k</title>
<path fill="none" stroke="DodgerBlue" d="M1811.95,-217.813C1809.18,-209.941 1805.82,-200.414 1802.71,-191.578"/>
<polygon fill="DodgerBlue" stroke="DodgerBlue" points="1805.97,-190.289 1799.34,-182.02 1799.36,-192.614 1805.97,-190.289"/>
</g>
<!-- execute2 -->
<g id="node21" class="node"><title>execute2</title>
<polygon fill="none" stroke="black" points="1693.5,-108 1502.5,-108 1502.5,-72 1693.5,-72 1693.5,-108"/>
<text text-anchor="middle" x="1598" y="-86.3" font-family="Times New Roman,serif" font-size="14.00">执行评价，更新wb_rate_status</text>
</g>
<!-- j&#45;&gt;execute2 -->
<g id="edge22" class="edge"><title>j&#45;&gt;execute2</title>
<path fill="none" stroke="DodgerBlue" d="M1598,-143.716C1598,-135.973 1598,-126.789 1598,-118.274"/>
<polygon fill="DodgerBlue" stroke="DodgerBlue" points="1601.5,-118.003 1598,-108.003 1594.5,-118.003 1601.5,-118.003"/>
</g>
<!-- k&#45;&gt;execute2 -->
<g id="edge24" class="edge"><title>k&#45;&gt;execute2</title>
<path fill="none" stroke="DodgerBlue" d="M1743.54,-143.992C1716.39,-134.106 1682.61,-121.808 1654.43,-111.548"/>
<polygon fill="DodgerBlue" stroke="DodgerBlue" points="1655.32,-108.144 1644.72,-108.011 1652.92,-114.722 1655.32,-108.144"/>
</g>
<!-- execute2&#45;&gt;saveRateRecord -->
<g id="edge31" class="edge"><title>execute2&#45;&gt;saveRateRecord</title>
<path fill="none" stroke="red" d="M1521.48,-71.9382C1506.15,-68.9456 1490.11,-66.1171 1475,-64 1286.05,-37.5185 1059.88,-25.5458 956.125,-21.1413"/>
<polygon fill="red" stroke="red" points="956.011,-17.6336 945.874,-20.714 955.72,-24.6275 956.011,-17.6336"/>
</g>
</g>
</svg>
