<?xml version="1.0" encoding="UTF-8" standalone="no"?>
<!DOCTYPE svg PUBLIC "-//W3C//DTD SVG 1.1//EN"
 "http://www.w3.org/Graphics/SVG/1.1/DTD/svg11.dtd">
<!-- Generated by graphviz version 2.38.0 (20140413.2041)
 -->
<!-- Title: G Pages: 1 -->
<svg width="582pt" height="294pt"
 viewBox="0.00 0.00 582.00 293.74" xmlns="http://www.w3.org/2000/svg" xmlns:xlink="http://www.w3.org/1999/xlink">
<g id="graph0" class="graph" transform="scale(1 1) rotate(0) translate(4 289.74)">
<title>G</title>
<polygon fill="white" stroke="none" points="-4,4 -4,-289.74 578,-289.74 578,4 -4,4"/>
<g id="clust1" class="cluster"><title>cluster2</title>
<polygon fill="none" stroke="black" points="8,-64 8,-277.74 566,-277.74 566,-64 8,-64"/>
</g>
<!-- h -->
<g id="node1" class="node"><title>h</title>
<ellipse fill="none" stroke="black" cx="414" cy="-251.74" rx="143.775" ry="18"/>
<text text-anchor="middle" x="414" y="-248.04" font-family="Times New Roman,serif" font-size="14.00">查询开启确定收货第七天评价的用户</text>
</g>
<!-- j -->
<g id="node3" class="node"><title>j</title>
<ellipse fill="none" stroke="black" cx="393" cy="-170.87" rx="107.46" ry="26.7407"/>
<text text-anchor="middle" x="393" y="-174.67" font-family="Times New Roman,serif" font-size="14.00">查询wb_rate_status表中</text>
<text text-anchor="middle" x="393" y="-159.67" font-family="Times New Roman,serif" font-size="14.00">6天前可以评价的订单</text>
</g>
<!-- h&#45;&gt;j -->
<g id="edge1" class="edge"><title>h&#45;&gt;j</title>
<path fill="none" stroke="DodgerBlue" d="M409.443,-233.626C407.427,-226.056 404.976,-216.848 402.588,-207.879"/>
<polygon fill="DodgerBlue" stroke="DodgerBlue" points="405.9,-206.716 399.945,-197.953 399.136,-208.517 405.9,-206.716"/>
</g>
<!-- i -->
<g id="node2" class="node"><title>i</title>
<ellipse fill="none" stroke="black" cx="134" cy="-251.74" rx="118.079" ry="18"/>
<text text-anchor="middle" x="134" y="-248.04" font-family="Times New Roman,serif" font-size="14.00">查询开启最后时间评价的用户</text>
</g>
<!-- k -->
<g id="node4" class="node"><title>k</title>
<ellipse fill="none" stroke="black" cx="137" cy="-170.87" rx="107.46" ry="26.7407"/>
<text text-anchor="middle" x="137" y="-174.67" font-family="Times New Roman,serif" font-size="14.00">查询wb_rate_status表中</text>
<text text-anchor="middle" x="137" y="-159.67" font-family="Times New Roman,serif" font-size="14.00">14天前可以评价的订单</text>
</g>
<!-- i&#45;&gt;k -->
<g id="edge3" class="edge"><title>i&#45;&gt;k</title>
<path fill="none" stroke="DodgerBlue" d="M134.651,-233.626C134.936,-226.137 135.282,-217.046 135.619,-208.168"/>
<polygon fill="DodgerBlue" stroke="DodgerBlue" points="139.125,-208.079 136.008,-197.953 132.13,-207.813 139.125,-208.079"/>
</g>
<!-- execute2 -->
<g id="node5" class="node"><title>execute2</title>
<ellipse fill="none" stroke="black" cx="266" cy="-90" rx="124.278" ry="18"/>
<text text-anchor="middle" x="266" y="-86.3" font-family="Times New Roman,serif" font-size="14.00">执行评价，更新wb_rate_status</text>
</g>
<!-- j&#45;&gt;execute2 -->
<g id="edge2" class="edge"><title>j&#45;&gt;execute2</title>
<path fill="none" stroke="DodgerBlue" d="M354.206,-145.778C337.465,-135.381 318.009,-123.299 301.637,-113.131"/>
<polygon fill="DodgerBlue" stroke="DodgerBlue" points="303.236,-110.005 292.895,-107.702 299.543,-115.951 303.236,-110.005"/>
</g>
<!-- k&#45;&gt;execute2 -->
<g id="edge4" class="edge"><title>k&#45;&gt;execute2</title>
<path fill="none" stroke="DodgerBlue" d="M176.405,-145.778C193.41,-135.381 213.172,-123.299 229.802,-113.131"/>
<polygon fill="DodgerBlue" stroke="DodgerBlue" points="231.976,-115.905 238.682,-107.702 228.324,-109.932 231.976,-115.905"/>
</g>
<!-- saveRateRecord -->
<g id="node6" class="node"><title>saveRateRecord</title>
<polygon fill="#c1b2ff" stroke="#c1b2ff" points="312.5,-36 219.5,-36 219.5,-0 312.5,-0 312.5,-36"/>
<text text-anchor="middle" x="266" y="-14.3" font-family="Times New Roman,serif" font-size="14.00">保存评价记录</text>
</g>
<!-- execute2&#45;&gt;saveRateRecord -->
<g id="edge5" class="edge"><title>execute2&#45;&gt;saveRateRecord</title>
<path fill="none" stroke="red" d="M266,-71.6966C266,-63.9827 266,-54.7125 266,-46.1124"/>
<polygon fill="red" stroke="red" points="269.5,-46.1043 266,-36.1043 262.5,-46.1044 269.5,-46.1043"/>
</g>
</g>
</svg>
